<?xml version="1.0" standalone="no"?>
<!DOCTYPE svg PUBLIC "-//W3C//DTD SVG 20010904//EN"
 "http://www.w3.org/TR/2001/REC-SVG-20010904/DTD/svg10.dtd">
<svg version="1.0" xmlns="http://www.w3.org/2000/svg"
 width="246.000000pt" height="246.000000pt" viewBox="0 0 246.000000 246.000000"
 preserveAspectRatio="xMidYMid meet">
<metadata>
Created by potrace 1.11, written by Peter Selinger 2001-2013
</metadata>
<g transform="translate(0.000000,246.000000) scale(0.100000,-0.100000)"
fill="#000000" stroke="none">
<path d="M1173 2443 c-7 -2 -13 -8 -13 -12 0 -4 40 -81 89 -172 l90 -164 -67
-31 c-48 -23 -60 -33 -43 -33 13 -1 170 -85 348 -188 243 -140 328 -194 339
-214 19 -38 21 -760 1 -799 -16 -31 -650 -400 -687 -400 -14 0 -59 18 -100 40
l-75 39 -111 -110 -111 -111 -62 -1 c-33 0 -61 -1 -61 -3 0 -1 107 -64 238
-138 203 -116 244 -136 280 -136 37 0 76 19 275 134 128 73 349 200 491 282
155 90 267 161 280 177 21 28 21 35 21 627 0 590 0 599 -21 627 -20 27 -151
106 -729 438 -243 139 -275 155 -315 154 -25 0 -51 -3 -57 -6z"/>
<path d="M1159 1701 c-48 -49 -30 -137 32 -156 18 -6 20 -14 17 -83 l-3 -77
-47 -3 c-45 -3 -51 0 -97 43 -44 42 -49 50 -44 80 7 43 -23 75 -70 75 -41 0
-67 -26 -67 -67 0 -39 27 -63 71 -63 28 0 44 -9 84 -50 49 -49 50 -50 112 -50
l63 0 0 -50 0 -50 -115 0 c-108 0 -115 1 -139 25 -48 48 -116 22 -116 -45 0
-67 68 -93 116 -45 24 24 31 25 140 25 l115 0 -3 -47 -3 -48 -62 -3 c-58 -3
-65 -6 -114 -50 -34 -30 -60 -46 -74 -44 -11 2 -33 -7 -48 -18 -33 -26 -36
-71 -7 -100 46 -46 127 -7 117 56 -5 27 1 38 42 78 43 43 50 46 99 46 l52 0 0
-78 c0 -75 -1 -77 -28 -90 -88 -38 -55 -182 41 -182 54 0 97 41 97 92 0 50
-13 74 -51 93 -29 16 -30 17 -27 88 l3 72 49 3 c47 3 51 1 98 -45 40 -39 48
-53 48 -84 0 -43 25 -69 67 -69 38 0 63 27 63 68 0 43 -33 76 -69 69 -23 -5
-36 2 -76 43 -47 48 -50 49 -114 52 l-66 3 -3 48 -3 47 117 0 c112 0 118 -1
140 -25 29 -32 68 -32 99 0 30 30 31 54 4 89 -27 34 -72 35 -103 1 -22 -24
-28 -25 -140 -25 l-117 0 3 48 3 47 67 5 c64 5 70 7 115 53 37 36 56 47 80 47
41 0 63 23 63 64 0 40 -26 66 -67 66 -39 0 -63 -28 -63 -72 0 -29 -8 -43 -50
-82 -47 -44 -53 -47 -98 -44 l-47 3 -3 72 c-3 71 -2 72 27 88 38 19 51 43 51
93 0 86 -99 125 -161 63z m117 -37 c19 -28 11 -59 -21 -80 -21 -13 -28 -14
-52 -2 -24 11 -28 19 -28 53 0 31 5 42 23 51 31 15 60 7 78 -22z m-302 -137
c13 -21 -13 -51 -36 -42 -24 10 -29 32 -11 50 18 18 32 16 47 -8z m560 1 c8
-14 7 -21 -6 -34 -30 -30 -75 9 -48 42 16 18 39 15 54 -8z m-599 -278 c11 -17
-5 -50 -24 -50 -24 0 -43 23 -35 44 7 18 49 22 59 6z m640 -20 c0 -30 -35 -40
-55 -15 -10 12 -10 18 0 30 20 25 55 15 55 -15z m-597 -274 c3 -11 -4 -26 -14
-33 -15 -11 -20 -10 -35 3 -14 13 -16 21 -8 36 13 24 52 20 57 -6z m550 12
c16 -16 15 -23 -4 -42 -12 -12 -20 -13 -35 -6 -10 6 -19 16 -19 23 0 16 20 37
35 37 6 0 16 -5 23 -12z m-263 -103 c29 -28 31 -42 9 -73 -18 -26 -65 -30 -88
-6 -24 23 -20 70 6 88 31 22 45 20 73 -9z"/>
<path d="M349 946 c13 -15 142 -106 178 -125 21 -11 21 -10 7 16 -7 16 -14 49
-14 76 l0 47 -91 0 c-77 0 -90 -2 -80 -14z"/>
</g>
</svg>
